<svg xmlns="http://www.w3.org/2000/svg" width="62" height="62" viewBox="0 0 62 62"><g><g><g><path fill="#4b4b4d" d="M14.022 43.34h2.55a1.274 1.274 0 1 0 0-2.55h-2.55a1.274 1.274 0 1 0 0 2.55z"/></g><g><path fill="#4b4b4d" d="M44.615 43.34h2.55a1.274 1.274 0 1 0 0-2.55h-2.55a1.274 1.274 0 1 0 0 2.55z"/></g><g><path fill="#4b4b4d" d="M29.318 43.34h2.55a1.274 1.274 0 1 0 0-2.55h-2.55a1.274 1.274 0 1 0 0 2.55z"/></g><g><path fill="#4b4b4d" d="M20.396 5.099v15.297H5.099V5.099zm2.549-2.55h15.297v17.846H22.945zM40.79 5.1h15.297v15.297H40.79zM3.824 22.945h53.538c.705 0 1.275-.57 1.275-1.275V3.824c0-.704-.57-1.275-1.275-1.275H40.791V1.275C40.79.57 40.22 0 39.516 0H21.67c-.704 0-1.275.57-1.275 1.275V2.55H3.825c-.705 0-1.276.57-1.276 1.274V21.67c0 .705.57 1.275 1.275 1.275z"/></g><g><path fill="#4b4b4d" d="M56.088 56.088H40.79V38.242h15.297zm-17.846 0H22.945V38.242h15.297zm-17.846 0H5.099V38.242h15.297zM1.275 35.692a1.274 1.274 0 1 0 0 2.55H2.55v19.12c0 .705.57 1.275 1.274 1.275H5.1v1.275a1.274 1.274 0 1 0 2.55 0v-1.275h45.89v1.275a1.274 1.274 0 1 0 2.549 0v-1.275h1.274c.705 0 1.275-.57 1.275-1.275v-19.12h1.275a1.274 1.274 0 1 0 0-2.55z"/></g><g><path fill="#4b4b4d" d="M16.571 15.297h-2.549a1.274 1.274 0 1 0 0 2.55h2.55a1.274 1.274 0 1 0 0-2.55z"/></g><g><path fill="#4b4b4d" d="M47.165 15.297h-2.55a1.274 1.274 0 1 0 0 2.55h2.55a1.274 1.274 0 1 0 0-2.55z"/></g><g><path fill="#4b4b4d" d="M31.868 15.297h-2.55a1.274 1.274 0 1 0 0 2.55h2.55a1.274 1.274 0 1 0 0-2.55z"/></g></g></g></svg>