<svg xmlns="http://www.w3.org/2000/svg" width="54" height="70" viewBox="0 0 54 70"><g><g><g><path fill="#4b4b4d" d="M50.988 33.148a34.617 34.617 0 0 1-21.22 31.912l-.008.005-3.424 1.478-2.975-1.298a34.68 34.68 0 0 1-20.788-31.74V16.272L26.432 3.197l24.556 13.085zm1.893-18.774L27.029.6a1.284 1.284 0 0 0-1.224.007L.668 14.381A1.287 1.287 0 0 0 0 15.511v17.994a37.258 37.258 0 0 0 22.332 34.1l3.489 1.52c.326.142.697.143 1.024.001l3.931-1.698a37.185 37.185 0 0 0 22.787-34.28V15.51c0-.475-.263-.912-.682-1.136z"/></g><g><path fill="#4b4b4d" d="M16.936 32.67a1.287 1.287 0 0 0-1.958 1.671l6.8 7.962a1.287 1.287 0 0 0 1.79.163L39.4 29.584a1.287 1.287 0 1 0-1.624-1.997L22.918 39.675z"/></g></g></g></svg>