<svg xmlns="http://www.w3.org/2000/svg" width="74" height="74" viewBox="0 0 74 74"><g><g><g><path fill="#4b4b4d" d="M9.866 7.398a1.233 1.233 0 1 1 2.466 0 1.233 1.233 0 0 1-2.466 0zm4.932 0a3.7 3.7 0 1 0-7.399 0 3.7 3.7 0 0 0 7.4 0z"/></g><g><path fill="#4b4b4d" d="M61.66 6.165a1.233 1.233 0 1 1 0 2.467 1.233 1.233 0 0 1 0-2.467zm0 4.933a3.7 3.7 0 1 0 0-7.4 3.7 3.7 0 0 0 0 7.4z"/></g><g><path fill="#4b4b4d" d="M51.794 40.695a1.233 1.233 0 1 1 2.466 0 1.233 1.233 0 0 1-2.466 0zm4.933 0a3.7 3.7 0 1 0-7.4 0 3.7 3.7 0 0 0 7.4 0z"/></g><g><path fill="#4b4b4d" d="M16.031 33.295a1.233 1.233 0 1 1-2.466 0 1.233 1.233 0 0 1 2.466 0zm-4.932 0a3.7 3.7 0 1 0 7.399 0 3.7 3.7 0 0 0-7.4 0z"/></g><g><path fill="#4b4b4d" d="M34.53 23.43a1.233 1.233 0 1 1 0-2.466 1.233 1.233 0 0 1 0 2.466zm0-4.933a3.7 3.7 0 1 0 0 7.4 3.7 3.7 0 0 0 0-7.4z"/></g><g><path fill="#4b4b4d" d="M34.53 53.026a1.233 1.233 0 1 1 2.466 0 1.233 1.233 0 0 1-2.467 0zm4.932 0a3.7 3.7 0 1 0-7.4 0 3.7 3.7 0 0 0 7.4 0z"/></g><g><path fill="#4b4b4d" d="M36.996 71.524c-.83 0-1.652-.04-2.467-.097v-3.602c0-.192-.044-.38-.13-.551l-1.596-3.187a1.201 1.201 0 0 1 .282-1.455 59.097 59.097 0 0 0 1.712 2.264 1.233 1.233 0 0 0 1.924 0 54.236 54.236 0 0 0 4.714-6.937h2.109a3.687 3.687 0 0 0 3.646-3.091l.542-3.28a1.243 1.243 0 0 1 1.213-1.028h1.603a56.336 56.336 0 0 0 1.523 2.004 1.233 1.233 0 0 0 1.924 0c.185-.23.775-.977 1.52-2 .672.012 1.21.558 1.212 1.23v1.232a3.7 3.7 0 0 0 3.7 3.7h.443a1.21 1.21 0 0 1 .712.227l2.315 1.655a34.475 34.475 0 0 1-26.901 12.916zM30.83 53.026a4.933 4.933 0 1 1 9.865 0c0 1.876-2.723 6.132-4.932 9.083-2.21-2.951-4.933-7.207-4.933-9.083zm17.264-12.331a4.933 4.933 0 1 1 9.866 0c0 1.875-2.723 6.131-4.933 9.082-2.21-2.951-4.933-7.207-4.933-9.082zM5.246 50.56h8.763a1.242 1.242 0 0 1 1.209.994l.616 3.09c.194.95.662 1.823 1.347 2.51l2.036 2.038a2.466 2.466 0 0 0 4.214-1.738v-9.767a1.192 1.192 0 0 1 .246-.74l2.467-3.287c.234-.31.598-.494.986-.499h2.467c5.448 0 9.865-4.417 9.865-9.866a6.15 6.15 0 0 0-.986-3.33c1.688-2.55 3.452-5.706 3.452-7.768a7.4 7.4 0 0 0-14.798 0c.198 1.753.788 3.439 1.727 4.932H18.88a7.352 7.352 0 0 0-4.082-1.233c0-.68.552-1.233 1.233-1.233h4.933a3.7 3.7 0 0 0 3.7-3.7v-6.165c0-.333.136-.65.377-.878a1.18 1.18 0 0 1 .856-.356 3.7 3.7 0 0 0 3.7-3.7V3.267a33.562 33.562 0 0 1 11.098-.583v9.648a3.7 3.7 0 0 0 3.7 3.7h2.466c.681 0 1.233.552 1.233 1.233v1.233a3.7 3.7 0 0 0 3.7 3.7h.16l.841 5.882a3.217 3.217 0 0 0 3.522 2.73 3.33 3.33 0 0 0 2.876-3.344v-2.802a.914.914 0 0 1 .529-.864 1.276 1.276 0 0 1 1.137-.01l1.357.676c1.646.827 1.911 1.032 1.911 2.01v3.12a8.675 8.675 0 0 0 3.453 6.907l3.854 2.89a34.318 34.318 0 0 1-6.058 17.24l-2.36-1.69a3.685 3.685 0 0 0-2.146-.682h-.444a1.233 1.233 0 0 1-1.233-1.234v-1.233a3.7 3.7 0 0 0-2.195-3.372c1.682-2.547 3.428-5.676 3.428-7.726a7.4 7.4 0 0 0-14.798 0c0 1.967 1.603 4.925 3.221 7.407a3.681 3.681 0 0 0-3.55 3.083l-.542 3.28a1.243 1.243 0 0 1-1.213 1.028H42.6c.33-.783.52-1.618.56-2.467a7.4 7.4 0 1 0-14.798 0c0 2.007 1.671 5.047 3.319 7.56l-.13.107a3.656 3.656 0 0 0-.95 4.501l1.46 2.922v3.05A34.63 34.63 0 0 1 5.247 50.56zm29.283-19.28c-2.21-2.952-4.932-7.208-4.932-9.083a4.933 4.933 0 1 1 9.865 0c0 1.875-2.723 6.131-4.933 9.082zm-14.798 2.015c0 1.876-2.723 6.132-4.933 9.083-2.21-2.951-4.932-7.207-4.932-9.083a4.933 4.933 0 1 1 9.865 0zM8.653 17.317zm1.48 1.95a1.233 1.233 0 0 0 1.924 0c.631-.787 5.956-7.538 6.394-11.381a34.215 34.215 0 0 1 8.68-3.986v5.965c0 .68-.553 1.233-1.234 1.233a3.72 3.72 0 0 0-3.7 3.7v6.166c0 .68-.552 1.233-1.233 1.233h-4.933a3.654 3.654 0 0 0-3.67 4.12A7.408 7.408 0 0 0 7.4 33.295c0 3.73 5.779 11.049 6.437 11.87a1.233 1.233 0 0 0 1.924 0c.659-.821 6.437-8.14 6.437-11.87 0-1.3-.346-2.576-1-3.7h9.148a60.092 60.092 0 0 0 3.222 4.471 1.233 1.233 0 0 0 1.924 0c.17-.212.686-.863 1.357-1.77.095.325.145.661.148 1a7.4 7.4 0 0 1-7.4 7.399H27.13a3.741 3.741 0 0 0-2.96 1.48l-2.457 3.28a3.632 3.632 0 0 0-.749 2.232v9.758L18.93 55.41a2.478 2.478 0 0 1-.673-1.256l-.616-3.083a3.716 3.716 0 0 0-3.63-2.977H4.305a34.39 34.39 0 0 1 4.347-30.777 62.917 62.917 0 0 0 1.48 1.95zM11.1 2.467a4.933 4.933 0 0 1 4.932 4.932c0 1.876-2.722 6.132-4.932 9.083-2.21-2.951-4.933-7.207-4.933-9.083a4.933 4.933 0 0 1 4.933-4.932zm49.599 16.802a1.233 1.233 0 0 0 1.923 0 59.63 59.63 0 0 0 2.097-2.808A34.506 34.506 0 0 1 71.5 36.357L69.06 34.53a6.197 6.197 0 0 1-2.467-4.933v-3.12c0-2.571-1.662-3.407-3.269-4.215l-1.366-.68a3.739 3.739 0 0 0-3.358.023 3.367 3.367 0 0 0-1.823 2.457c-.033.2-.05.4-.05.602v2.802a.873.873 0 0 1-.666.893.74.74 0 0 1-.825-.638l-.839-5.871a2.48 2.48 0 0 0-2.442-2.119h-.16a1.233 1.233 0 0 1-1.233-1.233v-1.233a3.7 3.7 0 0 0-3.7-3.7h-2.466a1.233 1.233 0 0 1-1.233-1.233V3.035a34.406 34.406 0 0 1 11.113 4.07c0 .097-.015.195-.015.293 0 3.73 5.78 11.049 6.438 11.87zm.962-16.802a4.933 4.933 0 0 1 4.932 4.932c0 1.876-2.723 6.132-4.933 9.083-2.21-2.951-4.932-7.207-4.932-9.083a4.933 4.933 0 0 1 4.932-4.932zm7.399 4.932A7.4 7.4 0 0 0 54.82 4.583a36.903 36.903 0 0 0-36.664.596A7.4 7.4 0 0 0 3.7 7.399c0 2.061 1.764 5.217 3.453 7.769A36.61 36.61 0 0 0 0 36.995c-.019 16.187 10.488 30.507 25.935 35.347 15.446 4.84 32.246-.925 41.467-14.23 9.221-13.303 8.722-31.057-1.231-43.822 1.495-2.367 2.888-5.06 2.888-6.892z"/></g></g></g></svg>