<svg xmlns="http://www.w3.org/2000/svg" width="70" height="71" viewBox="0 0 70 71"><g><g><path fill="#4b4b4d" d="M63.612 10.646l-2.285.54a1.459 1.459 0 0 0-.697.389l-23.67 23.67-.255-.256-1.792-1.791 23.67-23.67c.192-.192.327-.433.389-.697l.528-2.235 6.753-2.951.603.603zM36.935 43.445L26.713 33.223l2.048-2.047 10.22 10.221zm-5.146 1.032a4.376 4.376 0 0 0-.855 4.968L13.99 66.39a2.88 2.88 0 0 1-2.051.845 2.88 2.88 0 0 1-2.052-.845l-.243-.243 16.962-16.962a1.461 1.461 0 0 0-2.065-2.066L7.578 64.081 5.68 62.183l4.605-4.605a1.461 1.461 0 0 0-2.065-2.066L3.622 60.11a2.903 2.903 0 0 1 .146-3.941L20.71 39.225c.58.277 1.22.423 1.88.423a4.34 4.34 0 0 0 3.09-1.28c.354-.354.64-.758.85-1.196l6.455 6.455a4.37 4.37 0 0 0-1.197.85zM69.67 2.931L67.614.875a1.461 1.461 0 0 0-1.618-.306l-8.334 3.643a1.46 1.46 0 0 0-.836 1.002l-.601 2.542-23.377 23.376-3.055-3.054a1.461 1.461 0 0 0-2.065 0l-4.113 4.113a1.52 1.52 0 0 0-.163.197l-.02.026a1.586 1.586 0 0 0-.068.113l-.005.009c-.021.04-.04.08-.057.12l-.004.009c-.016.04-.03.079-.042.119l-.006.015c-.011.038-.02.077-.029.116-.001.008-.004.015-.006.023a1.413 1.413 0 0 0-.016.114l-.004.028c-.01.095-.01.191 0 .286 0 .01.002.018.003.028.005.038.01.076.017.114l.006.023c.009.039.018.078.03.116 0 .005.003.009.004.014.013.04.027.08.043.12l.003.006c.018.042.037.083.058.124l.002.003c.022.04.046.08.071.119l.013.017a1.396 1.396 0 0 0 .17.206c.274.273.424.637.424 1.024 0 .386-.15.75-.424 1.023a1.438 1.438 0 0 1-1.023.424c-.387 0-.751-.15-1.025-.424a1.46 1.46 0 0 0-2.065 0l-17.8 17.8a5.83 5.83 0 0 0 0 8.234l4.837 4.837.005.006.006.005 1.27 1.27a5.78 5.78 0 0 0 4.117 1.7 5.78 5.78 0 0 0 4.117-1.7l17.8-17.8a1.46 1.46 0 0 0 .001-2.065 1.45 1.45 0 0 1 1.023-2.471c.387 0 .751.15 1.025.424.277.277.639.419 1.002.426l.03.002.045-.003a1.453 1.453 0 0 0 .988-.425l4.113-4.113a1.46 1.46 0 0 0 0-2.065l-3.055-3.055 23.376-23.377 2.542-.6a1.46 1.46 0 0 0 .967-.761l4.029-7.948a1.46 1.46 0 0 0-.27-1.693z"/></g></g></svg>