<svg xmlns="http://www.w3.org/2000/svg" width="44" height="95" viewBox="0 0 44 95"><g><g><g><path fill="#4b4b4d" d="M16.954 28.496V19.48a1 1 0 0 0-.997-1.002 1 1 0 0 0-.997 1.002v9.016a1 1 0 0 0 .997 1.002 1 1 0 0 0 .997-1.002zm11.968 0V19.48a1 1 0 0 0-.997-1.002 1 1 0 0 0-.997 1.002v9.016a1 1 0 0 0 .997 1.002 1 1 0 0 0 .997-1.002zM20.944 2.45v40.073H1.994V2.449zm20.943 0v40.073H22.938V2.449zm1.995-1.001a1 1 0 0 0-.997-1.002H.997A1 1 0 0 0 0 1.448v43.015h43.882z"/></g><g><path fill="#4b4b4d" d="M29.333 64.362v-2.444a1.21 1.21 0 0 0-1.222-1.222 1.21 1.21 0 0 0-1.222 1.222v1.222H17.11v-1.222a1.21 1.21 0 0 0-1.222-1.222 1.21 1.21 0 0 0-1.222 1.222v2.444a1.21 1.21 0 0 0 1.222 1.223H28.11a1.21 1.21 0 0 0 1.222-1.223zm0 17.111V79.03a1.21 1.21 0 0 0-1.222-1.222 1.21 1.21 0 0 0-1.222 1.222v1.222H17.11V79.03a1.21 1.21 0 0 0-1.222-1.222 1.21 1.21 0 0 0-1.222 1.222v2.444a1.21 1.21 0 0 0 1.222 1.223H28.11a1.21 1.21 0 0 0 1.222-1.223zm12.222-25.666v14.667H2.445V55.807zm0 17.111v13.444a1.21 1.21 0 0 1-1.222 1.222H3.667a1.21 1.21 0 0 1-1.223-1.222V72.918zm-8.555 22a1.21 1.21 0 0 0 1.222-1.222v-3.667h6.111c.982 0 1.903-.38 2.594-1.072A3.644 3.644 0 0 0 44 86.362V53.346h-2.445v.016H2.445v-.016H0v33.016c0 .982.38 1.903 1.073 2.595a3.644 3.644 0 0 0 2.594 1.072h6.11v3.667A1.21 1.21 0 0 0 11 94.918a1.21 1.21 0 0 0 1.222-1.222v-3.667h19.556v3.667A1.21 1.21 0 0 0 33 94.918z"/></g></g></g></svg>