<svg xmlns="http://www.w3.org/2000/svg" width="48" height="64" viewBox="0 0 48 64"><g><g><g><path fill="#4b4b4d" d="M44.843 29.708c.739 0 1.319.58 1.319 1.32 0 .738-.58 1.318-1.319 1.318z"/></g><g><path fill="#4b4b4d" d="M2.638 29.708h42.205v2.638H2.638z"/></g><g><path fill="#4b4b4d" d="M36.93 58.724v3.957c0 .739-.58 1.319-1.32 1.319-.738 0-1.318-.58-1.318-1.319v-3.957z"/></g><g><path fill="#4b4b4d" d="M36.93 57.405v1.32h-2.638v-1.32c0-.738.58-1.318 1.319-1.318.738 0 1.319.58 1.319 1.318z"/></g><g><path fill="#4b4b4d" d="M11.87 56.087h23.74c-.738 0-1.318.58-1.318 1.318v1.32H13.189v-1.32c0-.738-.58-1.318-1.319-1.318z"/></g><g><path fill="#4b4b4d" d="M29.016 17.838c0-.738.58-1.319 1.32-1.319.738 0 1.318.58 1.318 1.32v2.637c0 .739-.58 1.319-1.319 1.319H17.146c-.739 0-1.319-.58-1.319-1.319v-2.638c0-.738.58-1.319 1.319-1.319s1.319.58 1.319 1.32v1.318h10.551z"/></g><g><path fill="#4b4b4d" d="M29.016 44.216c0-.738.58-1.318 1.32-1.318.738 0 1.318.58 1.318 1.318v2.638c0 .739-.58 1.32-1.319 1.32H17.146c-.739 0-1.319-.581-1.319-1.32v-2.638c0-.738.58-1.318 1.319-1.318s1.319.58 1.319 1.318v1.32h10.551z"/></g><g><path fill="#4b4b4d" d="M13.19 58.724v3.957c0 .739-.581 1.319-1.32 1.319-.738 0-1.319-.58-1.319-1.319v-3.957z"/></g><g><path fill="#4b4b4d" d="M13.19 57.405v1.32h-2.638v-1.32c0-.738.58-1.318 1.318-1.318.739 0 1.32.58 1.32 1.318z"/></g><g><path fill="#4b4b4d" d="M2.638 29.708v2.638c-.739 0-1.319-.58-1.319-1.319 0-.738.58-1.319 1.32-1.319z"/></g><g><path fill="#4b4b4d" d="M43.524 3.33H3.957c-.739 0-1.319.58-1.319 1.32v25.058c-.739 0-1.319.58-1.319 1.32 0 .738.58 1.318 1.32 1.318v22.422c0 .738.58 1.319 1.318 1.319h7.913c-.738 0-1.319.58-1.319 1.318v1.32H3.957A3.951 3.951 0 0 1 0 54.767V4.649A3.951 3.951 0 0 1 3.957.693h39.567a3.951 3.951 0 0 1 3.957 3.956v50.119a3.951 3.951 0 0 1-3.957 3.956H36.93v-1.319c0-.738-.58-1.318-1.32-1.318h7.914c.739 0 1.32-.58 1.32-1.32v-22.42c.738 0 1.318-.581 1.318-1.32 0-.738-.58-1.319-1.319-1.319V4.65c0-.738-.58-1.319-1.319-1.319z"/></g></g></g></svg>