<svg xmlns="http://www.w3.org/2000/svg" width="29" height="29" viewBox="0 0 29 29"><g><g><g><path fill="#4b4b4d" d="M6.598 20.395h1.2a.6.6 0 1 0 0-1.2h-1.2a.6.6 0 1 0 0 1.2z"/></g><g><path fill="#4b4b4d" d="M20.995 20.395h1.2a.6.6 0 1 0 0-1.2h-1.2a.6.6 0 1 0 0 1.2z"/></g><g><path fill="#4b4b4d" d="M13.797 20.395h1.2a.6.6 0 1 0 0-1.2h-1.2a.6.6 0 1 0 0 1.2z"/></g><g><path fill="#4b4b4d" d="M2.4 2.4h7.198v7.198H2.399zm8.397-1.2h7.199v8.398h-7.199zm8.399 1.2h7.198v7.198h-7.198zm7.798 8.397a.6.6 0 0 0 .6-.6V1.8a.6.6 0 0 0-.6-.6h-7.798V.6a.6.6 0 0 0-.6-.6h-8.398a.6.6 0 0 0-.6.6v.6H1.8a.6.6 0 0 0-.6.6v8.398a.6.6 0 0 0 .6.6z"/></g><g><path fill="#4b4b4d" d="M26.394 26.394h-7.198v-8.398h7.198zm-8.398 0h-7.199v-8.398h7.199zm-8.398 0H2.399v-8.398h7.199zm18.595-9.598H.6a.6.6 0 1 0 0 1.2h.6v8.998a.6.6 0 0 0 .6.6h.6v.6a.6.6 0 1 0 1.2 0v-.6h21.594v.6a.6.6 0 1 0 1.2 0v-.6h.6a.6.6 0 0 0 .6-.6v-8.998h.6a.6.6 0 1 0 0-1.2z"/></g><g><path fill="#4b4b4d" d="M7.798 7.198h-1.2a.6.6 0 1 0 0 1.2h1.2a.6.6 0 1 0 0-1.2z"/></g><g><path fill="#4b4b4d" d="M22.195 7.198h-1.2a.6.6 0 1 0 0 1.2h1.2a.6.6 0 1 0 0-1.2z"/></g><g><path fill="#4b4b4d" d="M14.997 7.198h-1.2a.6.6 0 1 0 0 1.2h1.2a.6.6 0 1 0 0-1.2z"/></g></g></g></svg>