<svg xmlns="http://www.w3.org/2000/svg" width="31" height="31" viewBox="0 0 31 31"><g><g><g><path fill="#4b4b4d" d="M4.06 3.617a.507.507 0 1 1 1.014 0 .507.507 0 0 1-1.015 0zm2.03 0a1.522 1.522 0 1 0-3.045 0 1.522 1.522 0 0 0 3.044 0z"/></g><g><path fill="#4b4b4d" d="M25.372 3.11a.507.507 0 1 1 0 1.014.507.507 0 0 1 0-1.015zm0 2.029a1.522 1.522 0 1 0 0-3.045 1.522 1.522 0 0 0 0 3.045z"/></g><g><path fill="#4b4b4d" d="M21.312 17.317a.507.507 0 1 1 1.015 0 .507.507 0 0 1-1.015 0zm2.03 0a1.522 1.522 0 1 0-3.045 0 1.522 1.522 0 0 0 3.045 0z"/></g><g><path fill="#4b4b4d" d="M6.597 14.273a.507.507 0 1 1-1.015 0 .507.507 0 0 1 1.015 0zm-2.03 0a1.522 1.522 0 1 0 3.044 0 1.522 1.522 0 0 0-3.044 0z"/></g><g><path fill="#4b4b4d" d="M14.208 10.213a.507.507 0 1 1 0-1.015.507.507 0 0 1 0 1.015zm0-2.03a1.522 1.522 0 1 0 0 3.045 1.522 1.522 0 0 0 0-3.045z"/></g><g><path fill="#4b4b4d" d="M14.208 22.392a.507.507 0 1 1 1.015 0 .507.507 0 0 1-1.015 0zm2.03 0a1.522 1.522 0 1 0-3.045 0 1.522 1.522 0 0 0 3.045 0z"/></g><g><path fill="#4b4b4d" d="M15.223 30.003c-.342 0-.68-.016-1.015-.04V28.48a.507.507 0 0 0-.053-.227l-.657-1.311a.494.494 0 0 1 .116-.6c.345.48.622.83.704.933a.507.507 0 0 0 .792 0c.72-.9 1.368-1.855 1.94-2.855h.867a1.517 1.517 0 0 0 1.5-1.272l.224-1.35a.511.511 0 0 1 .499-.422h.66c.307.422.55.73.626.824a.507.507 0 0 0 .792 0c.076-.094.319-.402.626-.823.276.005.497.23.498.506v.507c0 .841.681 1.523 1.522 1.523h.183c.105 0 .207.032.293.093l.952.681a14.186 14.186 0 0 1-11.07 5.315zm-2.537-7.611a2.03 2.03 0 1 1 4.06 0c0 .771-1.121 2.522-2.03 3.737-.91-1.215-2.03-2.966-2.03-3.738zm7.104-5.075a2.03 2.03 0 1 1 4.06 0c0 .772-1.121 2.523-2.03 3.737-.91-1.214-2.03-2.965-2.03-3.737zm-17.631 4.06zm3.605 0c.242.001.45.172.498.409l.253 1.271c.08.391.273.75.555 1.033l.837.839a1.015 1.015 0 0 0 1.734-.716v-4.019a.49.49 0 0 1 .102-.304l1.015-1.352a.517.517 0 0 1 .405-.206h1.015a4.06 4.06 0 0 0 4.06-4.06 2.53 2.53 0 0 0-.406-1.37c.695-1.05 1.42-2.348 1.42-3.196a3.045 3.045 0 0 0-6.089 0c.082.721.325 1.415.71 2.03H7.77a3.025 3.025 0 0 0-1.68-.508c0-.28.227-.507.508-.507h2.03c.84 0 1.522-.682 1.522-1.523V6.661c0-.137.056-.267.155-.361a.486.486 0 0 1 .352-.146c.84 0 1.522-.682 1.522-1.523V1.916a13.81 13.81 0 0 1 4.567-.24v3.97c0 .841.682 1.523 1.522 1.523h1.015c.28 0 .508.227.508.507v.507c0 .841.681 1.523 1.522 1.523h.066l.346 2.42a1.324 1.324 0 0 0 1.45 1.124 1.37 1.37 0 0 0 1.183-1.377v-1.152a.376.376 0 0 1 .218-.356.525.525 0 0 1 .467-.004l.558.278c.678.34.787.425.787.827v1.284a3.57 3.57 0 0 0 1.42 2.842l1.586 1.19a14.121 14.121 0 0 1-2.492 7.093l-.971-.695a1.516 1.516 0 0 0-.883-.281h-.183a.507.507 0 0 1-.507-.508v-.507a1.522 1.522 0 0 0-.904-1.388c.693-1.048 1.411-2.335 1.411-3.179a3.045 3.045 0 0 0-6.09 0c0 .81.66 2.027 1.326 3.048a1.515 1.515 0 0 0-1.46 1.269l-.223 1.35a.511.511 0 0 1-.5.422h-.388c.136-.322.214-.665.231-1.015a3.045 3.045 0 0 0-6.09 0c0 .826.688 2.077 1.366 3.111l-.053.044a1.505 1.505 0 0 0-.391 1.852l.601 1.202v1.256a14.25 14.25 0 0 1-11.034-8.48zm8.444-7.934c-.91-1.214-2.03-2.965-2.03-3.737a2.03 2.03 0 1 1 4.06 0c0 .772-1.12 2.523-2.03 3.737zm-6.09.83c0 .771-1.12 2.523-2.029 3.737-.91-1.214-2.03-2.966-2.03-3.737a2.03 2.03 0 1 1 4.06 0zM3.562 7.698zm.609.803a.507.507 0 0 0 .791 0c.26-.325 2.451-3.102 2.631-4.684a14.079 14.079 0 0 1 3.571-1.64v2.454c0 .28-.227.508-.507.508A1.53 1.53 0 0 0 9.134 6.66v2.537c0 .28-.227.508-.508.508h-2.03a1.504 1.504 0 0 0-1.51 1.695 3.048 3.048 0 0 0-2.041 2.872c0 1.535 2.377 4.546 2.648 4.884a.507.507 0 0 0 .792 0c.27-.338 2.649-3.35 2.649-4.884 0-.535-.143-1.06-.412-1.523h3.764c.597.918 1.198 1.68 1.326 1.84a.507.507 0 0 0 .792 0c.07-.088.282-.355.558-.728.04.133.06.271.06.41a3.045 3.045 0 0 1-3.044 3.045h-1.015a1.54 1.54 0 0 0-1.217.61l-1.012 1.35c-.201.263-.31.586-.308.917v4.016l-.837-.838a1.02 1.02 0 0 1-.277-.517l-.254-1.268a1.529 1.529 0 0 0-1.494-1.225H1.772A14.15 14.15 0 0 1 3.56 7.698c.299.41.535.71.609.803zm.397-6.914a2.03 2.03 0 0 1 2.03 2.03c0 .771-1.12 2.522-2.03 3.737-.91-1.215-2.03-2.966-2.03-3.737a2.03 2.03 0 0 1 2.03-2.03zM24.976 8.5a.507.507 0 0 0 .791 0c.095-.118.447-.564.863-1.156a14.198 14.198 0 0 1 2.79 8.188l-1.004-.753a2.55 2.55 0 0 1-1.015-2.03v-1.284c0-1.057-.684-1.402-1.345-1.734l-.562-.28a1.539 1.539 0 0 0-1.382.01 1.385 1.385 0 0 0-.77 1.259v1.152a.36.36 0 0 1-.275.368.304.304 0 0 1-.34-.263l-.344-2.415a1.02 1.02 0 0 0-1.005-.872h-.066a.507.507 0 0 1-.507-.508v-.507c0-.84-.682-1.522-1.523-1.522h-1.014a.507.507 0 0 1-.508-.508V1.821c1.61.29 3.157.857 4.573 1.675 0 .04-.006.08-.006.12 0 1.536 2.378 4.547 2.649 4.885zm.396-6.914a2.03 2.03 0 0 1 2.03 2.03c0 .771-1.121 2.522-2.03 3.737-.91-1.215-2.03-2.966-2.03-3.737a2.03 2.03 0 0 1 2.03-2.03zm1.856 4.865c.615-.974 1.188-2.082 1.188-2.835a3.045 3.045 0 0 0-5.859-1.159 15.185 15.185 0 0 0-15.086.245 3.045 3.045 0 0 0-5.949.914c0 .848.726 2.146 1.421 3.196A15.064 15.064 0 0 0 0 15.795a15.223 15.223 0 1 0 27.228-9.343z"/></g></g></g></svg>