<svg xmlns="http://www.w3.org/2000/svg" width="32" height="33" viewBox="0 0 32 33"><g><g><g><path fill="#4b4b4d" d="M27.655 8.524h1.063v7.445h-1.063z"/></g><g><path fill="#4b4b4d" d="M1.064 3.737c0-.587.476-1.063 1.063-1.063h1.064v21.273H2.127c-.373-.001-.74.098-1.063.285zm-.991 22.86c.024.102.055.203.093.3.016.038.04.07.057.107a1.95 1.95 0 0 0 .96.967c.041.02.079.047.121.065.095.036.192.066.291.09.038.009.072.025.11.032.139.028.28.043.422.043h14.36v-1.063H2.126c-.071 0-.143-.008-.212-.022-.026-.005-.05-.016-.075-.023a1.083 1.083 0 0 1-.124-.038 1.207 1.207 0 0 1-.106-.058c-.024-.014-.05-.024-.072-.04a1.112 1.112 0 0 1-.292-.291c-.02-.03-.035-.065-.053-.097-.018-.033-.032-.053-.045-.083a.945.945 0 0 1-.042-.138c-.006-.02-.015-.04-.02-.062a1.064 1.064 0 0 1 1.041-1.276h1.596a.532.532 0 0 0 .532-.532V5.865h18.613V4.8H4.255v-2.66a.532.532 0 0 0-.532-.53H2.127A2.127 2.127 0 0 0 0 3.736v22.337c0 .143.015.285.043.425.007.033.021.065.03.098z"/></g><g><path fill="#4b4b4d" d="M11.168 21.82v-3.192h2.128v3.191zM8.51 16.5h7.446v5.318h-1.596v-3.722a.532.532 0 0 0-.532-.532h-3.19a.532.532 0 0 0-.532.532v3.722H8.509zm3.723-5l2.098 2.624 1.05 1.312H9.084zm2.24 1.1l-1.133-1.418h4.743v-1.064h-5.85a.531.531 0 0 0-.407.193c0 .003-.006.004-.008.007l-4.255 5.318a.552.552 0 0 0-.07.117c0 .003-.003.006-.005.01a.535.535 0 0 0-.037.183c0 .008-.005.015-.005.022v6.382c0 .294.239.532.532.532h13.828v-1.064h-4.787v-5.318h7.446v3.191h1.063v-3.723c0-.007-.004-.014-.004-.022a.527.527 0 0 0-.037-.183c0-.004-.005-.008-.007-.012a.508.508 0 0 0-.068-.115l-1.596-1.996-.83.663.904 1.133h-7.147z"/></g><g><path fill="#4b4b4d" d="M21.273 19.692h-1.064v-1.064h1.064zm-1.596-2.127a.532.532 0 0 0-.531.532v2.127c0 .294.238.532.531.532h2.128a.532.532 0 0 0 .532-.532v-2.127a.532.532 0 0 0-.532-.532z"/></g><g><path fill="#4b4b4d" d="M30.846 31.392H16.175l14.67-14.671zm.735-16.446a.532.532 0 0 0-.58.115L14.515 31.548a.532.532 0 0 0 .376.908h16.486a.532.532 0 0 0 .532-.532V15.437c0-.215-.13-.409-.328-.491z"/></g><g><path fill="#4b4b4d" d="M27.655 24.698v3.503h-3.503zm-5.278 4.239a.532.532 0 0 0 .491.328h5.319a.532.532 0 0 0 .531-.532v-5.318a.532.532 0 0 0-.907-.376l-5.319 5.318a.531.531 0 0 0-.115.58z"/></g><g><path fill="#4b4b4d" d="M24.996 8.835L23.62 7.46l5.63-5.63 1.375 1.376zm-4.643 3.867l-.598-.6.288-.866 1.177 1.177zm.342-2.317l2.173-2.173 1.376 1.375-2.173 2.173zM29.626.702a.532.532 0 0 0-.752 0l-9.573 9.573a.536.536 0 0 0-.128.208l-.532 1.595a.532.532 0 0 0 .129.544l.155.156-1.22 1.22.753.752 1.22-1.22.155.156a.532.532 0 0 0 .544.129l1.596-.532a.53.53 0 0 0 .208-.129l9.572-9.573a.532.532 0 0 0 0-.751z"/></g><g><path fill="#4b4b4d" d="M5.318 22.883v1.595c0 .294.238.532.532.532h1.596v-1.063H6.381v-1.064z"/></g><g><path fill="#4b4b4d" d="M7.446 6.928H5.85a.532.532 0 0 0-.532.532v1.596h1.064V7.992h1.063z"/></g></g></g></svg>