<svg xmlns="http://www.w3.org/2000/svg" width="42" height="43" viewBox="0 0 42 43"><g><g><g><path fill="#4b4b4d" d="M4.79 1.577A4.33 4.33 0 0 1 .997 5.372V1.577zM.997 8.305V6.373a5.327 5.327 0 0 0 4.796-4.796h1.932A7.254 7.254 0 0 1 .996 8.305zm9.69-6.728a5.327 5.327 0 0 0 4.795 4.796v1.932a7.254 7.254 0 0 1-6.728-6.728zm4.795 3.795a4.33 4.33 0 0 1-3.795-3.795h3.795zm.996 0V1.577h3.795a4.33 4.33 0 0 1-3.795 3.795zm4.08 1.97c.176.21.49.239.7.062a8.233 8.233 0 0 0 2.463-3.501 8.281 8.281 0 0 0 4.918 4.916 8.281 8.281 0 0 0-4.918 4.92 8.281 8.281 0 0 0-4.917-4.919c.105-.038.21-.078.313-.12a.498.498 0 0 0-.38-.922 7.179 7.179 0 0 1-2.259.527V6.373a5.326 5.326 0 0 0 4.796-4.796h1.932a7.227 7.227 0 0 1-2.586 5.063.498.498 0 0 0-.063.702zm5.61-5.765a5.327 5.327 0 0 0 4.795 4.796v1.932a7.253 7.253 0 0 1-6.727-6.728zm4.795 3.795a4.33 4.33 0 0 1-3.795-3.795h3.795zm-3.795 10.69a4.33 4.33 0 0 1 3.795-3.795v3.795zm3.795-4.796a5.326 5.326 0 0 0-4.796 4.796h-1.931a7.253 7.253 0 0 1 6.728-6.728v1.932zm-9.689 4.796a5.326 5.326 0 0 0-4.796-4.796V9.334a7.253 7.253 0 0 1 6.728 6.728zm-4.796-3.795a4.33 4.33 0 0 1 3.795 3.795h-3.795zm-.996 9.587v1.932a7.253 7.253 0 0 1-6.728-6.728h1.932a5.326 5.326 0 0 0 4.796 4.796zm0 9.69h-3.795a4.33 4.33 0 0 1 3.795-3.796zm0-4.797a5.326 5.326 0 0 0-4.796 4.796H8.753a7.253 7.253 0 0 1 6.728-6.728zm-9.69 4.796a5.326 5.326 0 0 0-4.795-4.796v-1.931a7.253 7.253 0 0 1 6.728 6.728H5.792zM.997 27.75a4.33 4.33 0 0 1 3.795 3.794H.996zm7.242-14.01a8.281 8.281 0 0 0-4.918-4.92 8.281 8.281 0 0 0 4.918-4.918 8.281 8.281 0 0 0 4.92 4.919 8.282 8.282 0 0 0-4.92 4.918zm0 5.643a8.281 8.281 0 0 0 4.92 4.919 8.281 8.281 0 0 0-4.92 4.918 8.281 8.281 0 0 0-4.918-4.918 8.281 8.281 0 0 0 4.918-4.919zm-3.447-2.324a4.33 4.33 0 0 1-3.795 3.795v-3.795zm1-.996a5.326 5.326 0 0 0-4.795-4.796V9.334a7.253 7.253 0 0 1 6.728 6.728zm9.69-4.796a5.326 5.326 0 0 0-4.796 4.796H8.753a7.253 7.253 0 0 1 6.728-6.728zm0 4.796h-3.795a4.33 4.33 0 0 1 3.795-3.795zM.996 12.267a4.33 4.33 0 0 1 3.795 3.795H.996zm0 9.587a5.326 5.326 0 0 0 4.796-4.796h1.932a7.253 7.253 0 0 1-6.728 6.728zM.943 32.539h14.59c.52 0 .944-.423.944-.943V20.249a.498.498 0 0 0-.996 0v.604a4.33 4.33 0 0 1-3.795-3.795h3.795v.867a.498.498 0 0 0 .996 0v-.867h14.538c.52 0 .943-.423.943-.944V1.524a.945.945 0 0 0-.943-.943h-14.59a.937.937 0 0 0-.446.112.937.937 0 0 0-.445-.112H.944A.945.945 0 0 0 0 1.524v14.59c0 .162.04.313.112.446a.937.937 0 0 0-.112.446v14.59c0 .52.423.943.943.943z"/></g><g><path fill="#4b4b4d" d="M8.238 10.034L7.023 8.82l1.215-1.216L9.453 8.82zm-.38-3.458L5.996 8.44a.538.538 0 0 0 0 .76l1.864 1.863a.537.537 0 0 0 .76 0L10.481 9.2c.21-.21.21-.55 0-.76L8.618 6.576a.538.538 0 0 0-.76 0z"/></g><g><path fill="#4b4b4d" d="M23.672 7.604l1.215 1.215-1.215 1.215-1.215-1.215zm-.38 3.459a.537.537 0 0 0 .76 0l1.864-1.864c.209-.21.21-.55 0-.76l-1.864-1.863a.537.537 0 0 0-.76 0L21.43 8.44a.537.537 0 0 0 0 .759z"/></g><g><path fill="#4b4b4d" d="M8.239 23.086L9.453 24.3 8.24 25.516 7.023 24.3zm-.38 3.459c.209.208.55.209.76 0l1.863-1.864a.537.537 0 0 0 0-.76l-1.864-1.864a.538.538 0 0 0-.76 0l-1.863 1.864c-.21.21-.21.55 0 .76 1.757 1.756 1.86 1.857 1.864 1.864z"/></g><g><g><path fill="#4b4b4d" d="M20.847 20.574v1.367h-1.368v-1.367zM40.08 21.94h-1.367v-1.367h1.367zm-1.367 19.235V39.81h1.368v1.367zm-16.5-20.602h15.133v2.735h2.735V38.44h-2.735v2.735H22.214v-2.735h-2.735V23.31h2.735zm-2.735 19.235h1.368v1.367h-1.368zm-1.367 2.734h23.337V19.206H18.112z"/></g><g><path fill="#4b4b4d" d="M24.543 29.339l1.535 1.536-1.535 1.536-1.567-1.536zm1.819-3.25v1.367h-1.368V26.09zm4.954-.452l-1.536 1.536-1.536-1.536 1.536-1.566zm3.25 1.82H33.2v-1.368h1.367zm2.018 3.418l-1.566 1.536-1.536-1.536 1.536-1.536zM33.2 35.66v-1.368h1.367v1.368zm-4.955.451l1.536-1.535 1.536 1.535-1.536 1.567zm-3.25-1.819h1.368v1.368h-1.368zm2.735-7.237l2.051 2.051 2.051-2.051v1.768H33.6l-2.05 2.05 2.05 2.052h-1.768v1.768l-2.05-2.051-2.052 2.05v-1.767h-1.768l2.051-2.051-2.05-2.051h1.767zm-4.102 6.372v3.6h3.6l2.553 2.604 2.553-2.604h3.6v-3.6l2.605-2.553-2.604-2.553v-3.6h-3.6l-2.554-2.605-2.553 2.605h-3.6v3.6l-2.604 2.553z"/></g></g></g></g></svg>