<svg xmlns="http://www.w3.org/2000/svg" width="43" height="35" viewBox="0 0 43 35"><g><g><g><path fill="#37383a" d="M7.298 11.057c3.074.045 4.67.428 6.352.832 1.678.402 3.411.818 6.637.865v1.386c-3.073-.045-4.669-.428-6.352-.831-1.678-.403-3.41-.819-6.637-.866zm0-2.655c3.074.044 4.67.427 6.352.831 1.678.403 3.411.818 6.637.865v1.433c-3.073-.045-4.669-.428-6.352-.832-1.678-.403-3.41-.818-6.637-.865zm0-5.429c1.855.028 3.171.178 4.294.381v4.187c-1.128-.192-2.473-.336-4.294-.363zm5.517 3.323c.284.065.563.131.835.197 1.678.403 3.411.818 6.638.865v1.517c-3.074-.045-4.67-.428-6.353-.831a60.781 60.781 0 0 0-1.12-.262zm0-2.688c.28.064.557.13.835.197 1.678.403 3.41.818 6.637.865v1.465c-3.073-.045-4.669-.428-6.352-.832a62.064 62.064 0 0 0-1.12-.26zm-6.129 13.66a.612.612 0 0 0 .612-.612v-2.99c3.074.045 4.67.428 6.352.832 1.781.428 3.624.87 7.249.87a.612.612 0 0 0 .612-.612V4.063a.612.612 0 0 0-.612-.612c-3.48 0-5.173-.406-6.964-.836-1.678-.402-3.41-.818-6.637-.865v-.52a.612.612 0 0 0-1.223 0v15.426c0 .338.274.612.611.612z"/></g><g><path fill="#37383a" d="M41.143 12.893l-1.278 1.278a.611.611 0 0 0-.18.433v5.665H28.094v-7.556l2.288 2.32a.612.612 0 0 0 .436.182h2.903a.611.611 0 0 0 .433-.179l5.48-5.48 1.51 1.51zm-1.457 11.332l-1.732 1.732a.611.611 0 0 0-.18.432v2.272c0 .162.065.318.18.432l1.23 1.23v1.139l-.886.885-2.935-2.935a.611.611 0 0 0-.432-.18h-2.603v-2.32a.612.612 0 0 0-1.223 0v2.32h-5.286c-.248 0-.47.15-.565.378l-.675 1.63a.612.612 0 0 0 .133.666l.729.73-1.16 1.16h-1.444l-4.384-4.384a.612.612 0 0 0-.432-.18h-.104v-7.74h13.188v2.612a.612.612 0 0 0 1.223 0v-2.611h7.358v2.731zm2.501-13.845l-2.121-2.122a.612.612 0 0 0-.865 0l-5.734 5.734h-2.394L26.1 8.952a.612.612 0 0 0-.435-.183h-2.329a.612.612 0 0 0 0 1.223h2.073l1.46 1.481v8.796H10.159a.612.612 0 0 0 0 1.223h6.535v7.74h-6.25l-7.74-7.74h4.65a.612.612 0 0 0 0-1.223H1.838V9.992H4.24a.612.612 0 0 0 0-1.223H1.227a.612.612 0 0 0-.612.612v11.5c0 .162.065.318.18.432l8.963 8.964c.115.114.27.179.433.179h7.577l4.383 4.384c.115.115.27.18.433.18h1.95a.611.611 0 0 0 .432-.18l1.772-1.772a.612.612 0 0 0 0-.865l-.872-.873.362-.874h8.45l3.188 3.188a.611.611 0 0 0 .865 0l1.496-1.497a.611.611 0 0 0 .18-.432v-1.646a.611.611 0 0 0-.18-.432l-1.229-1.23v-1.765l1.732-1.732a.611.611 0 0 0 .179-.432v-9.62l1.278-1.28a.611.611 0 0 0 .18-.432v-2.334a.612.612 0 0 0-.18-.432z"/></g></g></g></svg>