<svg xmlns="http://www.w3.org/2000/svg" width="10" height="20" viewBox="0 0 10 20"><g><g><path fill="#000001" d="M.724 10.976h1.172c.103 0 .206.103.206.207v7.375c0 .38.31.69.69.69H5.48c.379 0 .69-.31.69-.69v-7.375c0-.104.103-.207.206-.207h1.93c.345 0 .655-.241.69-.586l.447-2.688c.07-.414-.275-.827-.689-.827H6.479a.309.309 0 0 1-.31-.31V4.84c0-.448.241-.69.69-.69h2.033c.379 0 .69-.31.69-.688V.705c0-.379-.311-.689-.69-.689H6.445c-4.48 0-4.377 3.619-4.377 4.136v2.516a.222.222 0 0 1-.207.207H.69c-.379 0-.689.31-.689.689v2.688c.034.414.345.724.724.724z"/></g></g></svg>