<svg xmlns="http://www.w3.org/2000/svg" width="43" height="43" viewBox="0 0 43 43"><g><g><g><path fill="#e2dbd1" d="M21.683 42.58C10.143 42.58.786 33.222.786 21.683.786 10.143 10.143.786 21.683.786S42.58 10.143 42.58 21.683 33.222 42.58 21.683 42.58z"/></g><g><g><g><path fill="#fff" d="M8.041 11.31a3.221 3.221 0 1 0 3.222-3.223zm.443 23.538h5.555V16.973H8.484z"/></g><g><path fill="#fff" d="M17.524 16.973h5.329v2.44h.075c.74-1.404 2.55-2.888 5.258-2.888 5.625 0 6.666 3.703 6.666 8.514v9.809h-5.554v-8.69c0-2.076-.038-4.739-2.888-4.739-2.892 0-3.335 2.257-3.335 4.59v8.843h-5.55z"/></g></g></g></g></g></svg>