<svg xmlns="http://www.w3.org/2000/svg" width="20" height="20" viewBox="0 0 20 20"><g><g><g><path fill="#000001" d="M13.586.016a5.905 5.905 0 0 1 5.887 5.887v7.457a5.905 5.905 0 0 1-5.887 5.887H6.129A5.905 5.905 0 0 1 .242 13.36V5.903A5.905 5.905 0 0 1 6.129.016h7.457zm0 1.57H6.129a4.317 4.317 0 0 0-4.317 4.317v7.457a4.317 4.317 0 0 0 4.317 4.317h7.457a4.317 4.317 0 0 0 4.317-4.317V5.903a4.317 4.317 0 0 0-4.317-4.317z"/></g><g><path fill="#000001" d="M14.987 3.352a1.124 1.124 0 1 0 0 2.249 1.124 1.124 0 0 0 0-2.249z"/></g><g><path fill="#000001" d="M13.48 6.094a5.04 5.04 0 1 1-7.119 7.135 5.04 5.04 0 0 1 7.118-7.135zm-3.57.098a3.47 3.47 0 1 0 .003 6.94 3.47 3.47 0 0 0-.003-6.94z"/></g></g></g></svg>