<svg xmlns="http://www.w3.org/2000/svg" width="38" height="38" viewBox="0 0 38 38"><g><g><path fill="#e2dbd1" d="M7 33.449c1.615 1.346 4.106.404 4.577-1.615v-.068c.269-1.211 1.615-6.865 2.154-9.22.134-.607.134-1.212-.068-1.818-.067-.606-.202-1.414-.202-2.289 0-2.76 1.616-4.846 3.635-4.846 1.683 0 2.558 1.28 2.558 2.827 0 1.75-1.077 4.308-1.683 6.664-.471 2.019 1.01 3.634 2.962 3.634 3.567 0 5.99-4.577 5.99-10.029 0-4.105-2.76-7.201-7.808-7.201-5.72 0-9.288 4.24-9.288 9.019 0 1.615.471 2.827 1.211 3.702.337.403.404.605.27 1.077-.068.336-.27 1.211-.404 1.48-.135.471-.539.673-.943.471-2.625-1.076-3.836-3.97-3.836-7.201 0-5.385 4.51-11.78 13.461-11.78 7.202 0 11.914 5.183 11.914 10.77 0 7.404-4.106 12.923-10.164 12.923-1.278 0-2.557-.471-3.5-1.077-.605-.404-1.413-.067-1.615.606-.337 1.279-.74 2.894-.875 3.298-.067.336-.202.606-.27.942-.672 1.817.607 3.702 2.491 3.837 1.414.067 2.827 0 4.24-.202 8.347-1.346 14.875-8.212 15.75-16.625C38.702 9.42 29.884-.07 18.846-.07A18.815 18.815 0 0 0 0 18.776c0 5.923 2.76 11.173 7 14.673z"/></g></g></svg>