<svg xmlns="http://www.w3.org/2000/svg" width="20" height="21" viewBox="0 0 20 21"><g><g><g><path fill="#000001" d="M19.924 10.42c0 5.406-4.383 9.788-9.788 9.788-5.406 0-9.788-4.382-9.788-9.788C.348 5.014 4.73.632 10.136.632c5.405 0 9.788 4.382 9.788 9.788zm-18.304 0a8.516 8.516 0 1 0 8.516-8.516z"/></g><g><path fill="#000001" d="M6.025 13.955c-.057.065-2.154-1.296-2.154-3.737 0-2.44 1.735-5.986 6.578-5.986S16.4 8.255 16.4 10.085s-1.05 5.873-4.863 5.873c-1.887 0-2.421-1.067-2.421-1.067s-.756 3.657-1.827 4.794c0 0-1.3.564-.728-3.077.041-.262 1.24-4.806 1.24-4.806a4.589 4.589 0 0 1-.306-1.658c0-.954.857-2.173 1.793-2.173.936 0 1.22.883 1.22 1.407 0 .525-.858 3.033-.858 3.604 0 .572.458 1.37 1.525 1.37s3.032-1.084 3.032-4.128-2.231-4.258-3.876-4.258c-1.644 0-4.653.98-4.653 4.1 0 1.6.764 2.349.764 2.349s.12.93-.417 1.54z"/></g></g></g></svg>