<svg xmlns="http://www.w3.org/2000/svg" width="38" height="39" viewBox="0 0 38 39"><g><g><g><g><path fill="#e2dbd1" d="M18.897.786c10.435 0 18.897 8.462 18.897 18.897 0 10.435-8.462 18.897-18.897 18.897C8.462 38.58 0 30.118 0 19.683 0 9.248 8.462.786 18.897.786z"/></g></g><g><g><path fill="#fff" d="M14.513 29.282c8.912 0 13.791-7.385 13.791-13.79 0-.208 0-.42-.015-.628a9.852 9.852 0 0 0 2.419-2.51 9.628 9.628 0 0 1-2.782.764 4.859 4.859 0 0 0 2.132-2.68 9.696 9.696 0 0 1-3.077 1.176 4.853 4.853 0 0 0-6.856-.212 4.853 4.853 0 0 0-1.402 4.63 13.767 13.767 0 0 1-9.989-5.065 4.851 4.851 0 0 0 1.5 6.47 4.821 4.821 0 0 1-2.199-.604v.06a4.847 4.847 0 0 0 3.889 4.751 4.866 4.866 0 0 1-2.188.083 4.857 4.857 0 0 0 4.527 3.368 9.71 9.71 0 0 1-7.17 2.007 13.653 13.653 0 0 0 7.42 2.177"/></g><g/></g></g></g></svg>