<svg xmlns="http://www.w3.org/2000/svg" width="28" height="20" viewBox="0 0 28 20"><g><g><g><path fill="#000001" d="M14.197.484s5.743 0 9.575.276c.53.06 1.695.067 2.734 1.14.82.821 1.086 2.682 1.086 2.682.17 1.452.262 2.91.273 4.372v2.048a40.322 40.322 0 0 1-.278 4.371s-.268 1.861-1.086 2.68c-1.034 1.073-2.2 1.08-2.734 1.142-3.827.281-9.57.281-9.57.281s-7.108-.064-9.295-.27c-.609-.115-1.973-.083-3.014-1.156-.82-.818-1.086-2.68-1.086-2.68A40.307 40.307 0 0 1 .528 11V8.95C.545 7.496.64 6.042.814 4.597c0 0 .269-1.861 1.086-2.681C2.937.842 4.1.837 4.634.776 8.459.501 14.197.501 14.197.501zm0 1.633h-.008c-.054 0-5.688.003-9.416.269L4.61 2.4c-.484.048-1.034.097-1.56.642-.244.243-.532 1.123-.63 1.757a38.964 38.964 0 0 0-.248 4.152v2.028c.009 1.388.092 2.774.249 4.153.094.626.377 1.504.626 1.752.462.48 1.106.557 1.672.624.145.015.266.032.393.052 2.13.181 8.803.249 9.088.249.249 0 5.759-.025 9.417-.274l.169-.017c.484-.047 1.034-.1 1.558-.641.243-.234.534-1.126.626-1.74.157-1.38.24-2.767.249-4.155V8.934a38.768 38.768 0 0 0-.249-4.153c-.097-.628-.38-1.508-.629-1.757-.526-.544-1.063-.596-1.56-.64l-.164-.016c-3.723-.268-9.362-.268-9.42-.268z"/></g><g><path fill="#000001" d="M11.744 5.907v8.146L18.7 9.98z"/></g></g></g></svg>