<svg xmlns="http://www.w3.org/2000/svg" width="62" height="62" viewBox="0 0 62 62"><g><g><g><path fill="#e2d5c5" d="M35.569 35.756l-4.672 1.304v-4.23a18.206 18.206 0 0 1-6.347-13.834c0-10.079 8.17-18.25 18.249-18.25 10.078 0 18.248 8.171 18.248 18.25 0 10.078-8.17 18.248-18.248 18.248-2.569 0-5.014-.53-7.23-1.488z"/></g><g><g><g><g><path d="M48.578 51.286l-9.054-9.054a3.548 3.548 0 0 0-4.508-.42l-5.779 3.952c-.468.32-1.1.262-1.502-.14L16.469 34.358a1.183 1.183 0 0 1-.14-1.503l3.951-5.778a3.547 3.547 0 0 0-.42-4.508l-9.054-9.055a3.55 3.55 0 0 0-5.014 0c-6.727 6.728-6.727 17.674 0 24.402l7.616 7.616a1.182 1.182 0 0 0 1.672-1.672l-7.616-7.615a14.793 14.793 0 0 1-4.362-10.53c0-3.977 1.55-7.717 4.362-10.53.223-.222.52-.345.835-.345.316 0 .613.123.836.346l9.054 9.054c.402.402.46 1.034.14 1.503l-1.758 2.57-6.767-6.766a1.182 1.182 0 0 0-1.672 1.671l7.081 7.081-.835 1.222a3.547 3.547 0 0 0 .42 4.508l11.265 11.266a3.547 3.547 0 0 0 4.508.42l5.779-3.951c.469-.32 1.1-.262 1.503.14l9.054 9.054c.223.223.346.52.346.835 0 .316-.123.613-.346.836a15.05 15.05 0 0 1-2.202 1.82l-7.059-7.06a1.182 1.182 0 0 0-1.671 1.672l6.59 6.59a14.845 14.845 0 0 1-6.188 1.34 14.793 14.793 0 0 1-10.53-4.362l-4.923-4.924a1.182 1.182 0 0 0-1.671 1.672l4.923 4.923a17.201 17.201 0 0 0 12.201 5.046 17.2 17.2 0 0 0 12.2-5.046 3.55 3.55 0 0 0 0-5.014z"/></g></g></g><g><g><g><path d="M18.03 46.812a1.187 1.187 0 0 0-1.67 0c-.22.22-.347.526-.347.836 0 .311.127.616.346.836.22.22.525.346.837.346a1.188 1.188 0 0 0 1.182-1.182c0-.31-.126-.615-.347-.836z"/></g></g></g><g><g><g><path d="M51.992 14.19L50 12.197a1.182 1.182 0 0 0-1.693 1.647H34.765a1.182 1.182 0 1 0 0 2.364h13.54A1.181 1.181 0 0 0 50 17.855l1.993-1.993a1.182 1.182 0 0 0 0-1.672z"/></g></g></g><g><g><g><path d="M51.157 21.88H37.615a1.181 1.181 0 0 0-1.693-1.647l-1.993 1.993a1.182 1.182 0 0 0 0 1.672l1.993 1.993a1.178 1.178 0 0 0 1.671 0c.454-.454.46-1.184.022-1.647h13.542a1.182 1.182 0 1 0 0-2.364z"/></g></g></g><g><g><g><path d="M42.96.844c-3.04 0-6.05.762-8.705 2.202a1.182 1.182 0 1 0 1.127 2.078 15.943 15.943 0 0 1 7.579-1.916c8.78 0 15.922 7.143 15.922 15.923 0 8.78-7.142 15.922-15.922 15.922-1.78 0-3.53-.292-5.2-.869a1.182 1.182 0 0 0-.652-.034l-5.456 1.26-.004-4.6c0-.3-.114-.587-.319-.806a15.864 15.864 0 0 1-4.292-10.874c0-2.68.678-5.328 1.96-7.66a1.182 1.182 0 0 0-2.07-1.14 18.306 18.306 0 0 0-2.253 8.8c0 4.497 1.634 8.789 4.611 12.14l.005 5.627a1.182 1.182 0 0 0 1.448 1.15l6.578-1.52c1.82.59 3.716.89 5.644.89 10.083 0 18.286-8.204 18.286-18.287C61.247 9.047 53.044.844 42.961.844z"/></g></g></g><g><g><g><path d="M31.754 6.136a1.18 1.18 0 0 0-1.685.026 1.184 1.184 0 0 0 .84 2.013c.305 0 .61-.117.84-.351l.015-.015a1.183 1.183 0 0 0-.01-1.673z"/></g></g></g></g></g></g></svg>