<svg xmlns="http://www.w3.org/2000/svg" width="83" height="82" viewBox="0 0 83 82"><g><g><g><path fill="#a15d36" d="M41.484 9.388L14.185 25.151l.102 31.816 27.3 15.591 27.3-15.709V25.21z"/></g><g><path fill="#70443b" d="M14.083 56.85l27.476 15.693-.103-31.514-27.373-15.82z"/></g><g><path fill="#e2d5c5" d="M14.083 25.208l27.401 15.82 27.402-15.82-27.402-15.82z"/></g><g><path fill="#fff" d="M24.503 40.951c0-9.421 7.638-17.058 17.059-17.058 9.421 0 17.059 7.637 17.059 17.058 0 9.422-7.638 17.059-17.06 17.059-9.42 0-17.058-7.637-17.058-17.059z"/></g><g><path d="M25.872 41.029c0-8.609 7.004-15.613 15.612-15.613 8.61 0 15.613 7.004 15.613 15.613S50.093 56.64 41.484 56.64c-8.608 0-15.612-7.003-15.612-15.612zm-8.606-15.82l22.625-13.062v4.983a1.593 1.593 0 0 0 3.187 0v-4.983L65.7 25.208l-8.797 5.08c-3.4-4.868-9.044-8.058-15.419-8.058-6.38 0-12.028 3.196-15.428 8.071zm60.087 38.176a1.593 1.593 0 0 0 1.571-2.772l-8.445-4.785v-8.374a1.593 1.593 0 0 0-3.186 0v6.568l-3.704-2.099a1.593 1.593 0 0 0-1.57 2.772l3.74 2.12L43.078 69.91V59.76c9.622-.812 17.205-8.902 17.205-18.731 0-2.854-.64-5.56-1.782-7.985l8.792-5.076v6.529a1.593 1.593 0 0 0 3.186 0v-9.289c0-.569-.303-1.095-.796-1.38L43.078 8.469v-6.63a1.593 1.593 0 0 0-3.187 0v6.63l-26.605 15.36c-.493.285-.797.811-.797 1.38v9.767a1.593 1.593 0 0 0 3.187 0V27.97l8.785 5.089a18.685 18.685 0 0 0-1.776 7.969c0 9.829 7.583 17.92 17.206 18.73V69.91L17.285 56.86l2.419-1.402a1.593 1.593 0 0 0-1.598-2.757l-2.43 1.409v-7.504a1.593 1.593 0 0 0-3.187 0v9.351l-7.048 4.087a1.593 1.593 0 0 0 1.598 2.756l7.067-4.097L40.688 74.05a1.59 1.59 0 0 0 1.593 0l26.694-15.411z"/></g><g><path d="M80.675 39.436c-.419 0-.83.17-1.126.466a1.605 1.605 0 0 0-.467 1.127c0 .419.17.83.467 1.126.296.296.707.467 1.126.467.42 0 .83-.17 1.127-.467.296-.296.466-.707.466-1.126 0-.42-.17-.83-.466-1.127a1.604 1.604 0 0 0-1.127-.466z"/></g><g><path d="M75.82 42.155c.297-.296.466-.707.466-1.126 0-.42-.169-.83-.466-1.127a1.601 1.601 0 0 0-1.125-.466c-.421 0-.83.17-1.128.467a1.605 1.605 0 0 0-.467 1.126c0 .419.17.828.467 1.126.298.296.707.467 1.128.467.419 0 .83-.17 1.125-.467z"/></g><g><path d="M68.886 39.436c-.419 0-.83.17-1.126.466a1.605 1.605 0 0 0-.467 1.127c0 .419.17.83.467 1.126.296.296.707.467 1.126.467.42 0 .83-.17 1.126-.467.297-.296.467-.707.467-1.126 0-.42-.17-.83-.467-1.127a1.604 1.604 0 0 0-1.126-.466z"/></g><g><path d="M14.083 42.622c.419 0 .83-.17 1.126-.467.296-.296.467-.707.467-1.126 0-.42-.17-.83-.467-1.127a1.604 1.604 0 0 0-1.126-.466c-.42 0-.83.17-1.127.467a1.605 1.605 0 0 0-.467 1.126c0 .419.17.83.467 1.126.297.296.708.467 1.127.467z"/></g><g><path d="M6.974 39.903a1.605 1.605 0 0 0-.467 1.126c0 .419.17.83.467 1.126.298.296.707.467 1.126.467.42 0 .83-.17 1.128-.467.296-.296.467-.707.467-1.126 0-.42-.17-.83-.467-1.127a1.609 1.609 0 0 0-1.128-.466c-.419 0-.828.17-1.126.467z"/></g><g><path d="M2.293 42.622c.42 0 .83-.17 1.127-.467.296-.296.467-.707.467-1.126 0-.42-.17-.83-.467-1.127a1.604 1.604 0 0 0-1.127-.466c-.419 0-.83.17-1.126.467A1.605 1.605 0 0 0 .7 41.029c0 .419.17.83.467 1.126.296.296.707.467 1.126.467z"/></g><g><path d="M2.293 15.23c.88 0 1.594-.713 1.594-1.593V3.431h10.206a1.593 1.593 0 0 0 0-3.186h-11.8C1.413.245.7.958.7 1.838v11.799c0 .88.714 1.593 1.593 1.593z"/></g><g><path d="M80.675.245H68.876a1.593 1.593 0 0 0 0 3.186h10.206v10.206a1.593 1.593 0 0 0 3.187 0v-11.8c0-.879-.714-1.592-1.594-1.592z"/></g><g><path d="M80.675 66.827c-.88 0-1.593.714-1.593 1.594v10.206H68.876a1.593 1.593 0 0 0 0 3.186h11.8c.88 0 1.593-.714 1.593-1.593v-11.8c0-.88-.714-1.593-1.594-1.593z"/></g><g><path d="M14.093 78.627H3.887V68.42a1.593 1.593 0 0 0-3.187 0V80.22c0 .88.714 1.593 1.593 1.593h11.8a1.593 1.593 0 0 0 0-3.186z"/></g><g><path d="M44.86 44.21h1.444c1.083 0 1.921-.346 2.513-1.037.591-.69.887-1.528.887-2.513 0-.984-.296-1.821-.887-2.512-.592-.691-1.43-1.037-2.513-1.037H44.86zm-2.686 2.256v-11.61h4.379c1.802 0 3.24.558 4.312 1.675 1.073 1.116 1.609 2.493 1.609 4.13 0 1.636-.534 3.013-1.6 4.13-1.068 1.116-2.508 1.675-4.321 1.675zm-6.187.248c-1.437 0-2.54-.342-3.308-1.028-.769-.686-1.153-1.664-1.153-2.936h2.703c0 .597.158 1.056.473 1.377.315.32.76.48 1.335.48.487 0 .876-.132 1.17-.397.292-.265.439-.62.439-1.062 0-1.006-.592-1.509-1.775-1.509h-1.128v-2.057h1.145c1.061 0 1.592-.458 1.592-1.376 0-.387-.133-.697-.398-.929-.265-.232-.614-.348-1.045-.348-.497 0-.89.14-1.177.423-.288.282-.432.671-.432 1.169h-2.653c0-1.084.387-1.952 1.16-2.604.775-.652 1.83-.979 3.169-.979 1.227 0 2.211.282 2.952.846.74.564 1.111 1.327 1.111 2.29 0 1.282-.691 2.117-2.073 2.504.708.132 1.263.436 1.667.912.403.475.605 1.067.605 1.774 0 1.029-.4 1.86-1.202 2.497-.802.635-1.86.953-3.177.953z"/></g></g></g></svg>