<svg xmlns="http://www.w3.org/2000/svg" width="85" height="61" viewBox="0 0 85 61"><g><g><g><path fill="#e2d5c5" d="M44 24h27v25H44z"/></g><g><path fill="#a15d36" d="M43.541 23.001h-3.545l-12.6-12.354-16.881 17.259v19.72H43.54z"/></g><g><g><path d="M79.43 26.29h2.464v2.463H79.43z"/></g><g><path d="M79.43 21.361h2.464v2.465H79.43z"/></g><g><path d="M81.894 31.217H79.43v15.851h-2.875v2.464h8.214v-2.464h-2.875z"/></g><g><path d="M76.555.747V3.21h2.875v15.688h2.464V3.21h2.875V.747z"/></g><g><path d="M36.969 55.774h2.463v2.464H36.97z"/></g><g><path d="M41.897 55.774h2.463v2.464h-2.463z"/></g><g><path d="M12.083 52.9H9.619v8.213h2.464v-2.875h22.421v-2.464H12.083z"/></g><g><path d="M69.081 55.774H46.824v2.464h22.257v2.875h2.465V52.9H69.08z"/></g><g><path d="M69.081 47.068H44.935V24.564h24.146zm-37.287 0H22.76V33.106h9.034zM8.47 3.21h7.392v2.465H8.469zm5.749 11.657l-4.106 4.107V8.138h4.106zm34.394 4.77h23.755V22.1H40.6L27.277 8.778 14.375 21.679l1.743 1.743 11.159-11.16 12.302 12.302h2.892v22.504h-8.213V30.642H20.296v16.426h-8.213V27.457l2.292-2.293-1.742-1.743-6.71 6.711L4.18 28.39 27.277 5.294 41.62 19.636h4.529v-2.463H42.64L27.277 1.809 16.682 12.404V8.138h1.643V.747H6.005v7.391h1.643v13.3L.696 28.39l5.227 5.226L9.62 29.92v19.612h61.927V24.565h3.285v-7.392H48.612z"/></g><g><path d="M63.66 39.02H50.357v-7.392H63.66zm2.465-9.856H47.892v12.32h18.233z"/></g><g><path d="M25.224 38.855h2.464v2.464h-2.464z"/></g><g><path d="M31.726 23.684l1.743-1.743 1.742 1.743-1.742 1.742z"/></g><g><path d="M26.405 18.362l1.743-1.742 3.578 3.579-1.742 1.742z"/></g><g><path d="M58.24 34.092h2.464v2.464H58.24z"/></g><g><path d="M53.313 34.092h2.463v2.464h-2.463z"/></g></g></g></g></svg>