<svg xmlns="http://www.w3.org/2000/svg" width="59" height="72" viewBox="0 0 59 72"><g><g><g><path fill="#e2d5c5" d="M36 59.5C36 53.701 40.701 49 46.5 49S57 53.701 57 59.5 52.299 70 46.5 70 36 65.299 36 59.5z"/></g><g><g><path d="M46.326 68.425c-4.918 0-8.92-4-8.92-8.918 0-4.918 4.002-8.919 8.92-8.919s8.918 4 8.918 8.919c0 4.918-4 8.918-8.918 8.918zM3.219 56.534V4.507c0-.82.668-1.486 1.487-1.486h29.728v6.172c0 2.453 1.74 4.233 4.139 4.233h6.267v34.292c-5.37.674-9.629 4.934-10.302 10.302H4.61c-.768 0-1.392-.666-1.392-1.486zM37.407 5.348l5.105 5.105h-3.94c-.963 0-1.165-.685-1.165-1.26zm10.406 6.202L36.311.048H4.706c-2.46 0-4.46 2-4.46 4.46v52.026c0 2.459 1.958 4.46 4.365 4.46h29.927c.735 5.856 5.736 10.405 11.788 10.405 6.557 0 11.891-5.336 11.891-11.892 0-6.053-4.548-11.053-10.404-11.789z"/></g><g><path d="M49.795 55.425l-5.685 5.076-1.27-1.1a1.488 1.488 0 0 0-1.946 2.25l2.259 1.953a1.487 1.487 0 0 0 1.963-.015l6.659-5.946a1.487 1.487 0 0 0-1.98-2.218z"/></g><g><path d="M7.678 11.94h2.973v2.973H7.678z"/></g><g><path d="M7.678 20.858h2.973v2.973H7.678z"/></g><g><path d="M7.678 29.777h2.973v2.973H7.678z"/></g><g><path d="M7.678 38.696h2.973v2.973H7.678z"/></g><g><path d="M7.678 47.615h2.973v2.973H7.678z"/></g><g><path d="M15.11 11.94h14.865v2.973H15.11z"/></g><g><path d="M15.11 20.858h14.865v2.973H15.11z"/></g><g><path d="M15.11 29.777h14.865v2.973H15.11z"/></g><g><path d="M15.11 38.696h14.865v2.973H15.11z"/></g><g><path d="M15.11 47.615h14.865v2.973H15.11z"/></g></g></g></g></svg>